<svg width="111" height="112" viewBox="0 0 111 112" fill="none" xmlns="http://www.w3.org/2000/svg">
<path d="M85.6097 1.33246C88.9714 4.69414 87.3857 14.0815 83.4532 14.0815C80.7892 14.0815 78.7595 9.26096 79.5841 4.821C80.0915 2.41073 81.9309 0.127325 83.4532 0.127325C83.9606 0.127325 84.9755 0.698177 85.6097 1.33246Z" fill="white"/>
<path d="M45.7769 2.60105C46.982 3.61589 47.2992 4.44046 47.2992 6.97758C47.2992 12.3055 43.4935 14.7158 40.7027 11.1638C38.7998 8.75356 38.9267 4.94788 40.9564 2.98161C42.7958 1.07877 43.8106 1.01535 45.7769 2.60105Z" fill="white"/>
<path d="M74.8904 39.4526C83.2629 50.616 83.8972 51.6942 83.2629 53.0897C82.8189 53.9776 82.1212 54.6754 81.6772 54.6754C79.0766 54.6754 52.8809 52.7091 52.1832 52.4554C51.2952 52.1382 51.1683 50.4891 52.0563 49.9183C52.6272 49.6011 66.2642 50.2988 76.0321 51.2502L80.0915 51.6308L71.719 40.4675C63.7271 29.8116 62.4585 27.4013 64.9956 27.4013C65.4396 27.4013 69.943 32.8561 74.8904 39.4526Z" fill="white"/>
<path d="M110.791 47.3177C111.361 48.84 93.4748 80.8077 85.4194 92.7322C79.9646 100.724 73.1778 107.828 68.9282 109.858C60.6191 113.79 51.422 109.985 39.6244 97.743C30.0468 87.7213 0.489372 50.1085 0.806512 48.3326C1.31394 45.6686 3.34363 47.4446 10.8281 57.3393C31.6959 84.8037 44.9524 99.8995 52.3735 104.72C54.086 105.798 57.0037 107.194 58.8431 107.701C61.8877 108.589 62.5219 108.589 65.7568 107.638C68.7379 106.813 70.0699 105.862 73.8756 102.056C80.7258 95.1424 86.688 85.9454 100.642 60.701C107.936 47.508 109.903 44.9709 110.791 47.3177Z" fill="white"/>
</svg>
