<svg width="32" height="32" viewBox="0 0 32 32" fill="none" xmlns="http://www.w3.org/2000/svg">
<rect width="32" height="32" rx="16" fill="#0038FF"/>
<path d="M20.6484 3.08864C21.229 3.84988 20.9551 5.97559 20.2759 5.97559C19.8157 5.97559 19.4651 4.88401 19.6076 3.8786C19.6952 3.33281 20.0129 2.81575 20.2759 2.81575C20.3635 2.81575 20.5388 2.94502 20.6484 3.08864Z" fill="white"/>
<path d="M13.7679 3.37528C13.9761 3.60509 14.0309 3.79181 14.0309 4.36632C14.0309 5.5728 13.3735 6.11859 12.8915 5.31427C12.5628 4.76848 12.5847 3.90671 12.9353 3.46146C13.253 3.03057 13.4283 3.01621 13.7679 3.37528Z" fill="white"/>
<path d="M18.7967 11.7204C20.2429 14.2483 20.3524 14.4924 20.2429 14.8084C20.1662 15.0095 20.0457 15.1675 19.969 15.1675C19.5198 15.1675 14.9951 14.7222 14.8746 14.6648C14.7212 14.593 14.6993 14.2195 14.8527 14.0903C14.9513 14.0184 17.3068 14.1764 18.9939 14.3919L19.6951 14.4781L18.2489 11.9502C16.8685 9.53723 16.6494 8.99144 17.0876 8.99144C17.1643 8.99144 17.9422 10.2266 18.7967 11.7204Z" fill="white"/>
<path d="M24.9977 13.5013C25.0963 13.846 22.0068 21.0849 20.6154 23.7852C19.6732 25.5949 18.5009 27.2035 17.7669 27.6631C16.3317 28.5536 14.7431 27.6919 12.7054 24.9198C11.051 22.6505 5.94566 14.1333 6.00044 13.7311C6.08808 13.1279 6.43867 13.53 7.73144 15.7707C11.3359 21.9898 13.6256 25.4082 14.9075 26.4997C15.2033 26.7439 15.7072 27.0599 16.0249 27.1748C16.5508 27.3759 16.6604 27.3759 17.2191 27.1604C17.734 26.9737 17.9641 26.7583 18.6215 25.8965C19.8047 24.3309 20.8345 22.2483 23.2448 16.5319C24.5047 13.5444 24.8443 12.9699 24.9977 13.5013Z" fill="white"/>
</svg>
